<svg xmlns="http://www.w3.org/2000/svg" viewBox="0 0 245 240">
  <path d="M104.14 0C46.97 0 0 46.97 0 104.14v131.72C0 221.03 18.97 240 42.14 240h131.72c57.17 0 104.14-46.97 104.14-104.14V104.14C245 46.97 198.03 0 104.14 0z" fill="#5865F2"/>
  <path d="M184.95 213H60.61c-2.73 0-5-2.27-5-5.05v-149.2c0-2.78 2.27-5.05 5-5.05h124.34c2.73 0 5 2.27 5 5.05v149.2c0 2.78-2.27 5.05-5 5.05zM77.34 89.42c0-8.3 6.75-15.05 15.05-15.05 8.3 0 15.05 6.75 15.05 15.05s-6.75 15.05-15.05 15.05c-8.3 0-15.05-6.75-15.05-15.05zm60.23 0c0-8.3 6.75-15.05 15.05-15.05 8.3 0 15.05 6.75 15.05 15.05s-6.75 15.05-15.05 15.05c-8.3 0-15.05-6.75-15.05-15.05z" fill="#FFFFFF"/>
</svg>